<mxfile host="Electron" modified="2025-05-24T15:51:14.419Z" agent="Mozilla/5.0 (Windows NT 10.0; Win64; x64) AppleWebKit/537.36 (KHTML, like Gecko) draw.io/24.4.0 Chrome/120.0.6099.109 Electron/28.1.0 Safari/537.36" etag="JvAcSUQU0HVDhLzCnY9D" version="24.4.0" type="device">
  <diagram name="Страница — 1" id="Al5U_2UB9kYIarU5RUSs">
    <mxGraphModel dx="1151" dy="682" grid="1" gridSize="10" guides="1" tooltips="1" connect="1" arrows="1" fold="1" page="1" pageScale="1" pageWidth="827" pageHeight="1169" math="0" shadow="0">
      <root>
        <mxCell id="0" />
        <mxCell id="1" parent="0" />
        <mxCell id="T4Ert9zSi3fNBj01HHRG-1" value="&lt;div style=&quot;font-size: 1px&quot;&gt;&lt;font style=&quot;font-size:9.88px;font-family:GOST type B;color:#000000;direction:ltr;letter-spacing:0px;line-height:120%;opacity:1&quot;&gt;&lt;i&gt;Изм.&lt;br/&gt;&lt;/i&gt;&lt;/font&gt;&lt;/div&gt;" style="verticalAlign=middle;align=center;overflow=width;vsdxID=179;fillColor=none;gradientColor=none;shape=stencil(nZBLDoAgDERP0z3SIyjew0SURgSD+Lu9kMZoXLhwN9O+tukAlrNpJg1SzDH4QW/URgNYgZTkjA4UkwJUgGXng+6DX1zLfmoymdXo17xh5zmRJ6Q42BWCfc2oJfdAr+Yv+AP9Cb7OJ3H/2JG1HNGz/84klThPVCc=);strokeColor=none;strokeWidth=2;spacingTop=-2;spacingBottom=-2;spacingLeft=-2;spacingRight=-2;points=[];labelBackgroundColor=none;rounded=0;html=1;whiteSpace=wrap;" parent="1" vertex="1">
          <mxGeometry x="80" y="1021" width="29" height="17" as="geometry" />
        </mxCell>
        <mxCell id="T4Ert9zSi3fNBj01HHRG-2" value="&lt;div style=&quot;font-size: 1px&quot;&gt;&lt;font style=&quot;font-size:9.88px;font-family:GOST type B;color:#000000;direction:ltr;letter-spacing:0px;line-height:120%;opacity:1&quot;&gt;&lt;i&gt;Лист&lt;br/&gt;&lt;/i&gt;&lt;/font&gt;&lt;/div&gt;" style="verticalAlign=middle;align=center;overflow=width;vsdxID=180;fillColor=none;gradientColor=none;shape=stencil(nZBLDoAgDERP0z3SIyjew0SURgSD+Lu9kMZoXLhwN9O+tukAlrNpJg1SzDH4QW/URgNYgZTkjA4UkwJUgGXng+6DX1zLfmoymdXo17xh5zmRJ6Q42BWCfc2oJfdAr+Yv+AP9Cb7OJ3H/2JG1HNGz/84klThPVCc=);strokeColor=none;strokeWidth=2;spacingTop=-2;spacingBottom=-2;spacingLeft=-2;spacingRight=-2;points=[];labelBackgroundColor=none;rounded=0;html=1;whiteSpace=wrap;" parent="1" vertex="1">
          <mxGeometry x="109" y="1021" width="39" height="17" as="geometry" />
        </mxCell>
        <mxCell id="T4Ert9zSi3fNBj01HHRG-3" value="&lt;div style=&quot;font-size: 1px&quot;&gt;&lt;font style=&quot;font-size:9.88px;font-family:GOST type B;color:#000000;direction:ltr;letter-spacing:0px;line-height:120%;opacity:1&quot;&gt;&lt;i&gt;№ докум.&lt;br/&gt;&lt;/i&gt;&lt;/font&gt;&lt;/div&gt;" style="verticalAlign=middle;align=center;overflow=width;vsdxID=181;fillColor=none;gradientColor=none;shape=stencil(nZBLDoAgDERP0z3SIyjew0SURgSD+Lu9kMZoXLhwN9O+tukAlrNpJg1SzDH4QW/URgNYgZTkjA4UkwJUgGXng+6DX1zLfmoymdXo17xh5zmRJ6Q42BWCfc2oJfdAr+Yv+AP9Cb7OJ3H/2JG1HNGz/84klThPVCc=);strokeColor=none;strokeWidth=2;spacingTop=-2;spacingBottom=-2;spacingLeft=-2;spacingRight=-2;points=[];labelBackgroundColor=none;rounded=0;html=1;whiteSpace=wrap;" parent="1" vertex="1">
          <mxGeometry x="148" y="1021" width="78" height="17" as="geometry" />
        </mxCell>
        <mxCell id="T4Ert9zSi3fNBj01HHRG-4" value="&lt;div style=&quot;font-size: 1px&quot;&gt;&lt;font style=&quot;font-size:9.88px;font-family:GOST type B;color:#000000;direction:ltr;letter-spacing:0px;line-height:120%;opacity:1&quot;&gt;&lt;i&gt;Подпись&lt;br/&gt;&lt;/i&gt;&lt;/font&gt;&lt;/div&gt;" style="verticalAlign=middle;align=center;overflow=width;vsdxID=182;fillColor=none;gradientColor=none;shape=stencil(nZBLDoAgDERP0z3SIyjew0SURgSD+Lu9kMZoXLhwN9O+tukAlrNpJg1SzDH4QW/URgNYgZTkjA4UkwJUgGXng+6DX1zLfmoymdXo17xh5zmRJ6Q42BWCfc2oJfdAr+Yv+AP9Cb7OJ3H/2JG1HNGz/84klThPVCc=);strokeColor=none;strokeWidth=2;spacingTop=-2;spacingBottom=-2;spacingLeft=-2;spacingRight=-2;points=[];labelBackgroundColor=none;rounded=0;html=1;whiteSpace=wrap;" parent="1" vertex="1">
          <mxGeometry x="227" y="1021" width="58" height="17" as="geometry" />
        </mxCell>
        <mxCell id="T4Ert9zSi3fNBj01HHRG-5" value="&lt;div style=&quot;font-size: 1px&quot;&gt;&lt;font style=&quot;font-size:9.88px;font-family:GOST type B;color:#000000;direction:ltr;letter-spacing:0px;line-height:120%;opacity:1&quot;&gt;&lt;i&gt;Дата&lt;br/&gt;&lt;/i&gt;&lt;/font&gt;&lt;/div&gt;" style="verticalAlign=middle;align=center;overflow=width;vsdxID=183;fillColor=none;gradientColor=none;shape=stencil(nZBLDoAgDERP0z3SIyjew0SURgSD+Lu9kMZoXLhwN9O+tukAlrNpJg1SzDH4QW/URgNYgZTkjA4UkwJUgGXng+6DX1zLfmoymdXo17xh5zmRJ6Q42BWCfc2oJfdAr+Yv+AP9Cb7OJ3H/2JG1HNGz/84klThPVCc=);strokeColor=none;strokeWidth=2;spacingTop=-2;spacingBottom=-2;spacingLeft=-2;spacingRight=-2;points=[];labelBackgroundColor=none;rounded=0;html=1;whiteSpace=wrap;" parent="1" vertex="1">
          <mxGeometry x="286" y="1021" width="39" height="17" as="geometry" />
        </mxCell>
        <mxCell id="T4Ert9zSi3fNBj01HHRG-6" value="&lt;div style=&quot;font-size: 1px&quot;&gt;&lt;p style=&quot;text-align:left;margin-left:0;margin-right:0;margin-top:0px;margin-bottom:0px;text-indent:0;vertical-align:middle;direction:ltr;&quot;&gt;&lt;font style=&quot;font-size:9.88px;font-family:GOST type B;color:#000000;direction:ltr;letter-spacing:0px;line-height:120%;opacity:1&quot;&gt;&lt;i&gt;Разраб.&lt;br/&gt;&lt;/i&gt;&lt;/font&gt;&lt;/p&gt;&lt;/div&gt;" style="verticalAlign=middle;align=left;overflow=width;vsdxID=184;fillColor=none;gradientColor=none;shape=stencil(nZBLDoAgDERP0z3SIyjew0SURgSD+Lu9kMZoXLhwN9O+tukAlrNpJg1SzDH4QW/URgNYgZTkjA4UkwJUgGXng+6DX1zLfmoymdXo17xh5zmRJ6Q42BWCfc2oJfdAr+Yv+AP9Cb7OJ3H/2JG1HNGz/84klThPVCc=);strokeColor=none;strokeWidth=2;spacingTop=-2;spacingBottom=-2;spacingLeft=-2;spacingRight=-2;points=[];labelBackgroundColor=none;rounded=0;html=1;whiteSpace=wrap;" parent="1" vertex="1">
          <mxGeometry x="80" y="1042" width="68" height="17" as="geometry" />
        </mxCell>
        <mxCell id="T4Ert9zSi3fNBj01HHRG-7" value="&lt;div style=&quot;font-size: 1px&quot;&gt;&lt;p style=&quot;text-align:left;margin-left:0;margin-right:0;margin-top:0px;margin-bottom:0px;text-indent:0;vertical-align:middle;direction:ltr;&quot;&gt;&lt;font style=&quot;font-size:9.88px;font-family:GOST type B;color:#000000;direction:ltr;letter-spacing:0px;line-height:120%;opacity:1&quot;&gt;&lt;i&gt;Проверил&lt;br/&gt;&lt;/i&gt;&lt;/font&gt;&lt;/p&gt;&lt;/div&gt;" style="verticalAlign=middle;align=left;overflow=width;vsdxID=185;fillColor=none;gradientColor=none;shape=stencil(nZBLDoAgDERP0z3SIyjew0SURgSD+Lu9kMZoXLhwN9O+tukAlrNpJg1SzDH4QW/URgNYgZTkjA4UkwJUgGXng+6DX1zLfmoymdXo17xh5zmRJ6Q42BWCfc2oJfdAr+Yv+AP9Cb7OJ3H/2JG1HNGz/84klThPVCc=);strokeColor=none;strokeWidth=2;spacingTop=-2;spacingBottom=-2;spacingLeft=-2;spacingRight=-2;points=[];labelBackgroundColor=none;rounded=0;html=1;whiteSpace=wrap;" parent="1" vertex="1">
          <mxGeometry x="80" y="1062" width="68" height="11" as="geometry" />
        </mxCell>
        <mxCell id="T4Ert9zSi3fNBj01HHRG-8" value="&lt;div style=&quot;font-size: 1px&quot;&gt;&lt;font style=&quot;font-size:9.88px;font-family:GOST type B;color:#000000;direction:ltr;letter-spacing:0px;line-height:120%;opacity:1&quot;&gt;&lt;i&gt;Лист&lt;br/&gt;&lt;/i&gt;&lt;/font&gt;&lt;/div&gt;" style="verticalAlign=middle;align=center;overflow=width;vsdxID=189;fillColor=none;gradientColor=none;shape=stencil(nZBLDoAgDERP0z3SIyjew0SURgSD+Lu9kMZoXLhwN9O+tukAlrNpJg1SzDH4QW/URgNYgZTkjA4UkwJUgGXng+6DX1zLfmoymdXo17xh5zmRJ6Q42BWCfc2oJfdAr+Yv+AP9Cb7OJ3H/2JG1HNGz/84klThPVCc=);strokeColor=none;strokeWidth=2;spacingTop=-2;spacingBottom=-2;spacingLeft=-2;spacingRight=-2;points=[];labelBackgroundColor=none;rounded=0;html=1;whiteSpace=wrap;" parent="1" vertex="1">
          <mxGeometry x="619" y="1079" width="39" height="17" as="geometry" />
        </mxCell>
        <mxCell id="T4Ert9zSi3fNBj01HHRG-9" value="&lt;div style=&quot;font-size: 1px&quot;&gt;&lt;font style=&quot;font-size:9.88px;font-family:GOST type B;color:#000000;direction:ltr;letter-spacing:0px;line-height:120%;opacity:1&quot;&gt;&lt;i&gt;Листов&lt;br/&gt;&lt;/i&gt;&lt;/font&gt;&lt;/div&gt;" style="verticalAlign=middle;align=center;overflow=width;vsdxID=190;fillColor=none;gradientColor=none;shape=stencil(nZBLDoAgDERP0z3SIyjew0SURgSD+Lu9kMZoXLhwN9O+tukAlrNpJg1SzDH4QW/URgNYgZTkjA4UkwJUgGXng+6DX1zLfmoymdXo17xh5zmRJ6Q42BWCfc2oJfdAr+Yv+AP9Cb7OJ3H/2JG1HNGz/84klThPVCc=);strokeColor=none;strokeWidth=2;spacingTop=-2;spacingBottom=-2;spacingLeft=-2;spacingRight=-2;points=[];labelBackgroundColor=none;rounded=0;html=1;whiteSpace=wrap;" parent="1" vertex="1">
          <mxGeometry x="698" y="1079" width="49" height="17" as="geometry" />
        </mxCell>
        <mxCell id="T4Ert9zSi3fNBj01HHRG-10" value="&lt;div style=&quot;font-size: 1px&quot;&gt;&lt;font style=&quot;font-size:9.88px;font-family:GOST type B;color:#000000;direction:ltr;letter-spacing:0px;line-height:120%;opacity:1&quot;&gt;&lt;i&gt;Лит.&lt;br/&gt;&lt;/i&gt;&lt;/font&gt;&lt;/div&gt;" style="verticalAlign=middle;align=center;overflow=width;vsdxID=191;fillColor=none;gradientColor=none;shape=stencil(nZBLDoAgDERP0z3SIyjew0SURgSD+Lu9kMZoXLhwN9O+tukAlrNpJg1SzDH4QW/URgNYgZTkjA4UkwJUgGXng+6DX1zLfmoymdXo17xh5zmRJ6Q42BWCfc2oJfdAr+Yv+AP9Cb7OJ3H/2JG1HNGz/84klThPVCc=);strokeColor=none;strokeWidth=2;spacingTop=-2;spacingBottom=-2;spacingLeft=-2;spacingRight=-2;points=[];labelBackgroundColor=none;rounded=0;html=1;whiteSpace=wrap;" parent="1" vertex="1">
          <mxGeometry x="619" y="1001" width="58" height="17" as="geometry" />
        </mxCell>
        <mxCell id="T4Ert9zSi3fNBj01HHRG-11" value="&lt;div style=&quot;font-size: 1px&quot;&gt;&lt;font style=&quot;font-size:9.88px;font-family:GOST type B;color:#000000;direction:ltr;letter-spacing:0px;line-height:120%;opacity:1&quot;&gt;&lt;i&gt;Масса&lt;br/&gt;&lt;/i&gt;&lt;/font&gt;&lt;/div&gt;" style="verticalAlign=middle;align=center;overflow=width;vsdxID=192;fillColor=none;gradientColor=none;shape=stencil(nZBLDoAgDERP0z3SIyjew0SURgSD+Lu9kMZoXLhwN9O+tukAlrNpJg1SzDH4QW/URgNYgZTkjA4UkwJUgGXng+6DX1zLfmoymdXo17xh5zmRJ6Q42BWCfc2oJfdAr+Yv+AP9Cb7OJ3H/2JG1HNGz/84klThPVCc=);strokeColor=none;strokeWidth=2;spacingTop=-2;spacingBottom=-2;spacingLeft=-2;spacingRight=-2;points=[];labelBackgroundColor=none;rounded=0;html=1;whiteSpace=wrap;" parent="1" vertex="1">
          <mxGeometry x="678" y="1001" width="58" height="17" as="geometry" />
        </mxCell>
        <mxCell id="T4Ert9zSi3fNBj01HHRG-12" value="&lt;div style=&quot;font-size: 1px&quot;&gt;&lt;font style=&quot;font-size:9.88px;font-family:GOST type B;color:#000000;direction:ltr;letter-spacing:0px;line-height:120%;opacity:1&quot;&gt;&lt;i&gt;Масштаб&lt;br/&gt;&lt;/i&gt;&lt;/font&gt;&lt;/div&gt;" style="verticalAlign=middle;align=center;overflow=width;vsdxID=193;fillColor=none;gradientColor=none;shape=stencil(nZBLDoAgDERP0z3SIyjew0SURgSD+Lu9kMZoXLhwN9O+tukAlrNpJg1SzDH4QW/URgNYgZTkjA4UkwJUgGXng+6DX1zLfmoymdXo17xh5zmRJ6Q42BWCfc2oJfdAr+Yv+AP9Cb7OJ3H/2JG1HNGz/84klThPVCc=);strokeColor=none;strokeWidth=2;spacingTop=-2;spacingBottom=-2;spacingLeft=-2;spacingRight=-2;points=[];labelBackgroundColor=none;rounded=0;html=1;whiteSpace=wrap;" parent="1" vertex="1">
          <mxGeometry x="737" y="1001" width="78" height="17" as="geometry" />
        </mxCell>
        <UserObject label="" tags="Фон" id="T4Ert9zSi3fNBj01HHRG-13">
          <mxCell style="vsdxID=146;edgeStyle=none;startArrow=none;endArrow=none;startSize=3;endSize=3;strokeWidth=2;strokeColor=#000000;spacingTop=-2;spacingBottom=-2;spacingLeft=-2;spacingRight=-2;verticalAlign=middle;html=1;labelBackgroundColor=none;rounded=0;" parent="1" edge="1">
            <mxGeometry relative="1" as="geometry">
              <mxPoint as="offset" />
              <Array as="points" />
              <mxPoint x="619" y="1077" as="sourcePoint" />
              <mxPoint x="816" y="1077" as="targetPoint" />
            </mxGeometry>
          </mxCell>
        </UserObject>
        <UserObject label="" tags="Фон" id="T4Ert9zSi3fNBj01HHRG-14">
          <mxCell style="vsdxID=147;edgeStyle=none;startArrow=none;endArrow=none;startSize=3;endSize=3;strokeWidth=2;strokeColor=#000000;spacingTop=-2;spacingBottom=-2;spacingLeft=-2;spacingRight=-2;verticalAlign=middle;html=1;labelBackgroundColor=none;rounded=0;" parent="1" edge="1">
            <mxGeometry relative="1" as="geometry">
              <Array as="points" />
              <mxPoint x="816" y="1018" as="sourcePoint" />
              <mxPoint x="619" y="1018" as="targetPoint" />
            </mxGeometry>
          </mxCell>
        </UserObject>
        <UserObject label="" tags="Фон" id="T4Ert9zSi3fNBj01HHRG-15">
          <mxCell style="vsdxID=148;edgeStyle=none;startArrow=none;endArrow=none;startSize=3;endSize=3;strokeWidth=2;strokeColor=#000000;spacingTop=-2;spacingBottom=-2;spacingLeft=-2;spacingRight=-2;verticalAlign=middle;html=1;labelBackgroundColor=none;rounded=0;" parent="1" edge="1">
            <mxGeometry relative="1" as="geometry">
              <mxPoint as="offset" />
              <Array as="points" />
              <mxPoint x="325" y="1097" as="sourcePoint" />
              <mxPoint x="816" y="1097" as="targetPoint" />
            </mxGeometry>
          </mxCell>
        </UserObject>
        <UserObject label="" tags="Фон" id="T4Ert9zSi3fNBj01HHRG-16">
          <mxCell style="vsdxID=149;edgeStyle=none;startArrow=none;endArrow=none;startSize=3;endSize=3;strokeWidth=2;strokeColor=#000000;spacingTop=-2;spacingBottom=-2;spacingLeft=-2;spacingRight=-2;verticalAlign=middle;html=1;labelBackgroundColor=none;rounded=0;" parent="1" edge="1">
            <mxGeometry relative="1" as="geometry">
              <mxPoint x="-1" as="offset" />
              <Array as="points" />
              <mxPoint x="80" y="1156" as="sourcePoint" />
              <mxPoint x="815" y="1156" as="targetPoint" />
            </mxGeometry>
          </mxCell>
        </UserObject>
        <UserObject label="" tags="Фон" id="T4Ert9zSi3fNBj01HHRG-17">
          <mxCell style="vsdxID=150;edgeStyle=none;startArrow=none;endArrow=none;startSize=3;endSize=3;strokeWidth=2;strokeColor=#000000;spacingTop=-2;spacingBottom=-2;spacingLeft=-2;spacingRight=-2;verticalAlign=middle;html=1;labelBackgroundColor=none;rounded=0;" parent="1" edge="1">
            <mxGeometry relative="1" as="geometry">
              <Array as="points" />
              <mxPoint x="816" y="999" as="sourcePoint" />
              <mxPoint x="325" y="999" as="targetPoint" />
            </mxGeometry>
          </mxCell>
        </UserObject>
        <UserObject label="" tags="Фон" id="T4Ert9zSi3fNBj01HHRG-18">
          <mxCell style="vsdxID=151;edgeStyle=none;startArrow=none;endArrow=none;startSize=3;endSize=3;strokeWidth=2;strokeColor=#000000;spacingTop=-2;spacingBottom=-2;spacingLeft=-2;spacingRight=-2;verticalAlign=middle;html=1;labelBackgroundColor=none;rounded=0;" parent="1" edge="1">
            <mxGeometry relative="1" as="geometry">
              <Array as="points" />
              <mxPoint x="816" y="940" as="sourcePoint" />
              <mxPoint x="80" y="940" as="targetPoint" />
            </mxGeometry>
          </mxCell>
        </UserObject>
        <UserObject label="" tags="Фон" id="T4Ert9zSi3fNBj01HHRG-19">
          <mxCell style="vsdxID=154;edgeStyle=none;startArrow=none;endArrow=none;startSize=3;endSize=3;strokeWidth=2;strokeColor=#000000;spacingTop=-2;spacingBottom=-2;spacingLeft=-2;spacingRight=-2;verticalAlign=middle;html=1;labelBackgroundColor=none;rounded=0;" parent="1" edge="1">
            <mxGeometry relative="1" as="geometry">
              <Array as="points" />
              <mxPoint x="80" y="1156" as="sourcePoint" />
              <mxPoint x="80" y="27" as="targetPoint" />
            </mxGeometry>
          </mxCell>
        </UserObject>
        <UserObject label="" tags="Фон" id="T4Ert9zSi3fNBj01HHRG-20">
          <mxCell style="vsdxID=155;edgeStyle=none;startArrow=none;endArrow=none;startSize=3;endSize=3;strokeWidth=2;strokeColor=#000000;spacingTop=-2;spacingBottom=-2;spacingLeft=-2;spacingRight=-2;verticalAlign=middle;html=1;labelBackgroundColor=none;rounded=0;" parent="1" edge="1">
            <mxGeometry relative="1" as="geometry">
              <Array as="points" />
              <mxPoint x="816" y="1156" as="sourcePoint" />
              <mxPoint x="816" y="27" as="targetPoint" />
            </mxGeometry>
          </mxCell>
        </UserObject>
        <UserObject label="" tags="Фон" id="T4Ert9zSi3fNBj01HHRG-21">
          <mxCell style="vsdxID=156;edgeStyle=none;startArrow=none;endArrow=none;startSize=3;endSize=3;strokeWidth=2;strokeColor=#000000;spacingTop=-2;spacingBottom=-2;spacingLeft=-2;spacingRight=-2;verticalAlign=middle;html=1;labelBackgroundColor=none;rounded=0;" parent="1" edge="1">
            <mxGeometry relative="1" as="geometry">
              <Array as="points" />
              <mxPoint x="737" y="1077" as="sourcePoint" />
              <mxPoint x="737" y="999" as="targetPoint" />
            </mxGeometry>
          </mxCell>
        </UserObject>
        <UserObject label="" tags="Фон" id="T4Ert9zSi3fNBj01HHRG-22">
          <mxCell style="vsdxID=157;edgeStyle=none;startArrow=none;endArrow=none;startSize=3;endSize=3;strokeWidth=2;strokeColor=#000000;spacingTop=-2;spacingBottom=-2;spacingLeft=-2;spacingRight=-2;verticalAlign=middle;html=1;labelBackgroundColor=none;rounded=0;" parent="1" edge="1">
            <mxGeometry relative="1" as="geometry">
              <Array as="points" />
              <mxPoint x="678" y="1077" as="sourcePoint" />
              <mxPoint x="678" y="999" as="targetPoint" />
            </mxGeometry>
          </mxCell>
        </UserObject>
        <UserObject label="" tags="Фон" id="T4Ert9zSi3fNBj01HHRG-23">
          <mxCell style="vsdxID=158;edgeStyle=none;startArrow=none;endArrow=none;startSize=3;endSize=3;strokeWidth=2;strokeColor=#000000;spacingTop=-2;spacingBottom=-2;spacingLeft=-2;spacingRight=-2;verticalAlign=middle;html=1;labelBackgroundColor=none;rounded=0;" parent="1" edge="1">
            <mxGeometry relative="1" as="geometry">
              <Array as="points" />
              <mxPoint x="659" y="1077" as="sourcePoint" />
              <mxPoint x="659" y="1018" as="targetPoint" />
            </mxGeometry>
          </mxCell>
        </UserObject>
        <UserObject label="" tags="Фон" id="T4Ert9zSi3fNBj01HHRG-24">
          <mxCell style="vsdxID=159;edgeStyle=none;startArrow=none;endArrow=none;startSize=3;endSize=3;strokeWidth=2;strokeColor=#000000;spacingTop=-2;spacingBottom=-2;spacingLeft=-2;spacingRight=-2;verticalAlign=middle;html=1;labelBackgroundColor=none;rounded=0;" parent="1" edge="1">
            <mxGeometry relative="1" as="geometry">
              <Array as="points" />
              <mxPoint x="639" y="1077" as="sourcePoint" />
              <mxPoint x="639" y="1018" as="targetPoint" />
            </mxGeometry>
          </mxCell>
        </UserObject>
        <UserObject label="" tags="Фон" id="T4Ert9zSi3fNBj01HHRG-25">
          <mxCell style="vsdxID=160;edgeStyle=none;startArrow=none;endArrow=none;startSize=3;endSize=3;strokeWidth=2;strokeColor=#000000;spacingTop=-2;spacingBottom=-2;spacingLeft=-2;spacingRight=-2;verticalAlign=middle;html=1;labelBackgroundColor=none;rounded=0;" parent="1" edge="1">
            <mxGeometry relative="1" as="geometry">
              <Array as="points" />
              <mxPoint x="619" y="1156" as="sourcePoint" />
              <mxPoint x="619" y="999" as="targetPoint" />
            </mxGeometry>
          </mxCell>
        </UserObject>
        <UserObject label="" tags="Фон" id="T4Ert9zSi3fNBj01HHRG-26">
          <mxCell style="vsdxID=161;edgeStyle=none;startArrow=none;endArrow=none;startSize=3;endSize=3;strokeWidth=2;strokeColor=#000000;spacingTop=-2;spacingBottom=-2;spacingLeft=-2;spacingRight=-2;verticalAlign=middle;html=1;labelBackgroundColor=none;rounded=0;" parent="1" edge="1">
            <mxGeometry relative="1" as="geometry">
              <Array as="points" />
              <mxPoint x="698" y="1097" as="sourcePoint" />
              <mxPoint x="698" y="1077" as="targetPoint" />
            </mxGeometry>
          </mxCell>
        </UserObject>
        <UserObject label="" tags="Фон" id="T4Ert9zSi3fNBj01HHRG-27">
          <mxCell style="vsdxID=162;edgeStyle=none;startArrow=none;endArrow=none;startSize=3;endSize=3;strokeWidth=2;strokeColor=#000000;spacingTop=-2;spacingBottom=-2;spacingLeft=-2;spacingRight=-2;verticalAlign=middle;html=1;labelBackgroundColor=none;rounded=0;" parent="1" edge="1">
            <mxGeometry relative="1" as="geometry">
              <Array as="points" />
              <mxPoint x="109" y="1038" as="sourcePoint" />
              <mxPoint x="109" y="940" as="targetPoint" />
            </mxGeometry>
          </mxCell>
        </UserObject>
        <UserObject label="" tags="Фон" id="T4Ert9zSi3fNBj01HHRG-28">
          <mxCell style="vsdxID=163;edgeStyle=none;startArrow=none;endArrow=none;startSize=3;endSize=3;strokeWidth=2;strokeColor=#000000;spacingTop=-2;spacingBottom=-2;spacingLeft=-2;spacingRight=-2;verticalAlign=middle;html=1;labelBackgroundColor=none;rounded=0;" parent="1" edge="1">
            <mxGeometry relative="1" as="geometry">
              <Array as="points" />
              <mxPoint x="148" y="1156" as="sourcePoint" />
              <mxPoint x="148" y="940" as="targetPoint" />
            </mxGeometry>
          </mxCell>
        </UserObject>
        <UserObject label="" tags="Фон" id="T4Ert9zSi3fNBj01HHRG-29">
          <mxCell style="vsdxID=164;edgeStyle=none;startArrow=none;endArrow=none;startSize=3;endSize=3;strokeWidth=2;strokeColor=#000000;spacingTop=-2;spacingBottom=-2;spacingLeft=-2;spacingRight=-2;verticalAlign=middle;html=1;labelBackgroundColor=none;rounded=0;" parent="1" edge="1">
            <mxGeometry relative="1" as="geometry">
              <Array as="points" />
              <mxPoint x="227" y="1156" as="sourcePoint" />
              <mxPoint x="227" y="940" as="targetPoint" />
            </mxGeometry>
          </mxCell>
        </UserObject>
        <UserObject label="" tags="Фон" id="T4Ert9zSi3fNBj01HHRG-30">
          <mxCell style="vsdxID=165;edgeStyle=none;startArrow=none;endArrow=none;startSize=3;endSize=3;strokeWidth=2;strokeColor=#000000;spacingTop=-2;spacingBottom=-2;spacingLeft=-2;spacingRight=-2;verticalAlign=middle;html=1;labelBackgroundColor=none;rounded=0;" parent="1" edge="1">
            <mxGeometry relative="1" as="geometry">
              <Array as="points" />
              <mxPoint x="286" y="1156" as="sourcePoint" />
              <mxPoint x="286" y="940" as="targetPoint" />
            </mxGeometry>
          </mxCell>
        </UserObject>
        <UserObject label="" tags="Фон" id="T4Ert9zSi3fNBj01HHRG-31">
          <mxCell style="vsdxID=166;edgeStyle=none;startArrow=none;endArrow=none;startSize=3;endSize=3;strokeWidth=2;strokeColor=#000000;spacingTop=-2;spacingBottom=-2;spacingLeft=-2;spacingRight=-2;verticalAlign=middle;html=1;labelBackgroundColor=none;rounded=0;" parent="1" edge="1">
            <mxGeometry relative="1" as="geometry">
              <Array as="points" />
              <mxPoint x="325" y="1156" as="sourcePoint" />
              <mxPoint x="325" y="940" as="targetPoint" />
            </mxGeometry>
          </mxCell>
        </UserObject>
        <UserObject label="" tags="Фон" id="T4Ert9zSi3fNBj01HHRG-32">
          <mxCell style="vsdxID=167;edgeStyle=none;startArrow=none;endArrow=none;startSize=3;endSize=3;strokeWidth=2;strokeColor=#000000;spacingTop=-2;spacingBottom=-2;spacingLeft=-2;spacingRight=-2;verticalAlign=middle;html=1;labelBackgroundColor=none;rounded=0;" parent="1" edge="1">
            <mxGeometry relative="1" as="geometry">
              <Array as="points" />
              <mxPoint x="325" y="959" as="sourcePoint" />
              <mxPoint x="80" y="959" as="targetPoint" />
            </mxGeometry>
          </mxCell>
        </UserObject>
        <UserObject label="" tags="Фон" id="T4Ert9zSi3fNBj01HHRG-33">
          <mxCell style="vsdxID=168;edgeStyle=none;startArrow=none;endArrow=none;startSize=3;endSize=3;strokeWidth=2;strokeColor=#000000;spacingTop=-2;spacingBottom=-2;spacingLeft=-2;spacingRight=-2;verticalAlign=middle;html=1;labelBackgroundColor=none;rounded=0;" parent="1" edge="1">
            <mxGeometry relative="1" as="geometry">
              <Array as="points" />
              <mxPoint x="325" y="979" as="sourcePoint" />
              <mxPoint x="80" y="979" as="targetPoint" />
            </mxGeometry>
          </mxCell>
        </UserObject>
        <UserObject label="" tags="Фон" id="T4Ert9zSi3fNBj01HHRG-34">
          <mxCell style="vsdxID=169;edgeStyle=none;startArrow=none;endArrow=none;startSize=3;endSize=3;strokeWidth=2;strokeColor=#000000;spacingTop=-2;spacingBottom=-2;spacingLeft=-2;spacingRight=-2;verticalAlign=middle;html=1;labelBackgroundColor=none;rounded=0;" parent="1" edge="1">
            <mxGeometry relative="1" as="geometry">
              <Array as="points" />
              <mxPoint x="325" y="1018" as="sourcePoint" />
              <mxPoint x="80" y="1018" as="targetPoint" />
            </mxGeometry>
          </mxCell>
        </UserObject>
        <UserObject label="" tags="Фон" id="T4Ert9zSi3fNBj01HHRG-35">
          <mxCell style="vsdxID=170;edgeStyle=none;startArrow=none;endArrow=none;startSize=3;endSize=3;strokeWidth=2;strokeColor=#000000;spacingTop=-2;spacingBottom=-2;spacingLeft=-2;spacingRight=-2;verticalAlign=middle;html=1;labelBackgroundColor=none;rounded=0;" parent="1" edge="1">
            <mxGeometry relative="1" as="geometry">
              <Array as="points" />
              <mxPoint x="325" y="1038" as="sourcePoint" />
              <mxPoint x="80" y="1038" as="targetPoint" />
            </mxGeometry>
          </mxCell>
        </UserObject>
        <UserObject label="" tags="Фон" id="T4Ert9zSi3fNBj01HHRG-36">
          <mxCell style="vsdxID=171;edgeStyle=none;startArrow=none;endArrow=none;startSize=3;endSize=3;strokeWidth=2;strokeColor=#000000;spacingTop=-2;spacingBottom=-2;spacingLeft=-2;spacingRight=-2;verticalAlign=middle;html=1;labelBackgroundColor=none;rounded=0;" parent="1" edge="1">
            <mxGeometry relative="1" as="geometry">
              <Array as="points" />
              <mxPoint x="325" y="1057" as="sourcePoint" />
              <mxPoint x="80" y="1057" as="targetPoint" />
            </mxGeometry>
          </mxCell>
        </UserObject>
        <mxCell id="T4Ert9zSi3fNBj01HHRG-37" value="&lt;div style=&quot;font-size: 1px&quot;&gt;&lt;/div&gt;" style="text;vsdxID=171;edgeStyle=none;startArrow=none;endArrow=none;startSize=3;endSize=3;strokeWidth=2;strokeColor=none;spacingTop=-2;spacingBottom=-2;spacingLeft=-2;spacingRight=-2;verticalAlign=middle;html=1;labelBackgroundColor=none;rounded=0;align=center;overflow=width;fillColor=none;gradientColor=none;whiteSpace=wrap;;html=1;;rotation=0" parent="T4Ert9zSi3fNBj01HHRG-36" vertex="1">
          <mxGeometry width="245.3" height="1" relative="1" as="geometry">
            <mxPoint x="122.35" y="-0.5" as="offset" />
          </mxGeometry>
        </mxCell>
        <UserObject label="" tags="Фон" id="T4Ert9zSi3fNBj01HHRG-38">
          <mxCell style="vsdxID=172;edgeStyle=none;startArrow=none;endArrow=none;startSize=3;endSize=3;strokeWidth=2;strokeColor=#000000;spacingTop=-2;spacingBottom=-2;spacingLeft=-2;spacingRight=-2;verticalAlign=middle;html=1;labelBackgroundColor=none;rounded=0;" parent="1" edge="1">
            <mxGeometry relative="1" as="geometry">
              <Array as="points" />
              <mxPoint x="325" y="1077" as="sourcePoint" />
              <mxPoint x="80" y="1077" as="targetPoint" />
            </mxGeometry>
          </mxCell>
        </UserObject>
        <UserObject label="" tags="Фон" id="T4Ert9zSi3fNBj01HHRG-39">
          <mxCell style="vsdxID=173;edgeStyle=none;startArrow=none;endArrow=none;startSize=3;endSize=3;strokeWidth=2;strokeColor=#000000;spacingTop=-2;spacingBottom=-2;spacingLeft=-2;spacingRight=-2;verticalAlign=middle;html=1;labelBackgroundColor=none;rounded=0;" parent="1" edge="1">
            <mxGeometry relative="1" as="geometry">
              <Array as="points" />
              <mxPoint x="325" y="1116" as="sourcePoint" />
              <mxPoint x="80" y="1116" as="targetPoint" />
            </mxGeometry>
          </mxCell>
        </UserObject>
        <UserObject label="" tags="Фон" id="T4Ert9zSi3fNBj01HHRG-40">
          <mxCell style="vsdxID=174;edgeStyle=none;startArrow=none;endArrow=none;startSize=3;endSize=3;strokeWidth=2;strokeColor=#000000;spacingTop=-2;spacingBottom=-2;spacingLeft=-2;spacingRight=-2;verticalAlign=middle;html=1;labelBackgroundColor=none;rounded=0;" parent="1" edge="1">
            <mxGeometry relative="1" as="geometry">
              <Array as="points" />
              <mxPoint x="325" y="1136" as="sourcePoint" />
              <mxPoint x="80" y="1136" as="targetPoint" />
            </mxGeometry>
          </mxCell>
        </UserObject>
        <UserObject label="" tags="Фон" id="T4Ert9zSi3fNBj01HHRG-41">
          <mxCell style="vsdxID=194;edgeStyle=none;startArrow=none;endArrow=none;startSize=3;endSize=3;strokeWidth=2;strokeColor=#000000;spacingTop=-2;spacingBottom=-2;spacingLeft=-2;spacingRight=-2;verticalAlign=middle;html=1;labelBackgroundColor=none;rounded=0;" parent="1" edge="1">
            <mxGeometry relative="1" as="geometry">
              <Array as="points" />
              <mxPoint x="325" y="999" as="sourcePoint" />
              <mxPoint x="80" y="999" as="targetPoint" />
            </mxGeometry>
          </mxCell>
        </UserObject>
        <UserObject label="" tags="Фон" id="T4Ert9zSi3fNBj01HHRG-42">
          <mxCell style="vsdxID=195;edgeStyle=none;startArrow=none;endArrow=none;startSize=3;endSize=3;strokeWidth=2;strokeColor=#000000;spacingTop=-2;spacingBottom=-2;spacingLeft=-2;spacingRight=-2;verticalAlign=middle;html=1;labelBackgroundColor=none;rounded=0;" parent="1" edge="1">
            <mxGeometry relative="1" as="geometry">
              <Array as="points" />
              <mxPoint x="325" y="1097" as="sourcePoint" />
              <mxPoint x="80" y="1097" as="targetPoint" />
            </mxGeometry>
          </mxCell>
        </UserObject>
        <UserObject label="" tags="Фон" id="T4Ert9zSi3fNBj01HHRG-43">
          <mxCell style="vsdxID=199;edgeStyle=none;startArrow=none;endArrow=none;startSize=3;endSize=3;strokeWidth=2;strokeColor=#000000;spacingTop=-2;spacingBottom=-2;spacingLeft=-2;spacingRight=-2;verticalAlign=middle;html=1;labelBackgroundColor=none;rounded=0;" parent="1" edge="1">
            <mxGeometry relative="1" as="geometry">
              <mxPoint x="-1" as="offset" />
              <Array as="points" />
              <mxPoint x="80" y="27" as="sourcePoint" />
              <mxPoint x="816" y="27" as="targetPoint" />
            </mxGeometry>
          </mxCell>
        </UserObject>
        <UserObject label="&lt;div style=&quot;&quot;&gt;&lt;p style=&quot;text-align: center; margin: 0px; text-indent: 0px; vertical-align: middle; direction: ltr;&quot;&gt;&lt;font style=&quot;font-family: &amp;quot;GOST type B&amp;quot;; color: rgb(0, 0, 0); direction: ltr; letter-spacing: 0px; line-height: 120%; opacity: 1;&quot;&gt;&lt;i style=&quot;font-size: 22px;&quot;&gt;Блок-схема алгоритма валидации перехода карточек&lt;/i&gt;&lt;/font&gt;&lt;/p&gt;&lt;/div&gt;" tags="Фон" id="T4Ert9zSi3fNBj01HHRG-44">
          <mxCell style="verticalAlign=middle;align=center;overflow=width;vsdxID=227;fillColor=none;gradientColor=none;shape=stencil(nZBLDoAgDERP0z3SIyjew0SURgSD+Lu9kMZoXLhwN9O+tukAlrNpJg1SzDH4QW/URgNYgZTkjA4UkwJUgGXng+6DX1zLfmoymdXo17xh5zmRJ6Q42BWCfc2oJfdAr+Yv+AP9Cb7OJ3H/2JG1HNGz/84klThPVCc=);strokeColor=none;strokeWidth=2;spacingTop=-2;spacingBottom=-2;spacingLeft=-2;spacingRight=-2;points=[];labelBackgroundColor=none;rounded=0;html=1;whiteSpace=wrap;" parent="1" vertex="1">
            <mxGeometry x="325" y="988" width="295" height="116.25" as="geometry" />
          </mxCell>
        </UserObject>
        <UserObject label="&lt;div style=&quot;font-size: 1px&quot;&gt;&lt;p style=&quot;text-align:left;margin-left:0;margin-right:0;margin-top:0px;margin-bottom:0px;text-indent:0;vertical-align:middle;direction:ltr;&quot;&gt;&lt;font style=&quot;font-size:9.88px;font-family:GOST type B;color:#000000;direction:ltr;letter-spacing:0px;line-height:120%;opacity:1&quot;&gt;&lt;i&gt;Васьковский З.А.&lt;/i&gt;&lt;/font&gt;&lt;/p&gt;&lt;/div&gt;" tags="Фон" id="T4Ert9zSi3fNBj01HHRG-46">
          <mxCell style="verticalAlign=middle;align=left;overflow=width;vsdxID=216;fillColor=none;gradientColor=none;shape=stencil(nZBLDoAgDERP0z3SIyjew0SURgSD+Lu9kMZoXLhwN9O+tukAlrNpJg1SzDH4QW/URgNYgZTkjA4UkwJUgGXng+6DX1zLfmoymdXo17xh5zmRJ6Q42BWCfc2oJfdAr+Yv+AP9Cb7OJ3H/2JG1HNGz/84klThPVCc=);strokeColor=none;strokeWidth=2;spacingTop=-2;spacingBottom=-2;spacingLeft=-2;spacingRight=-2;points=[];labelBackgroundColor=none;rounded=0;html=1;whiteSpace=wrap;" parent="1" vertex="1">
            <mxGeometry x="150" y="1042" width="76" height="11" as="geometry" />
          </mxCell>
        </UserObject>
        <UserObject label="&lt;div style=&quot;font-size: 1px&quot;&gt;&lt;p style=&quot;text-align:left;margin-left:0;margin-right:0;margin-top:0px;margin-bottom:0px;text-indent:0;vertical-align:middle;direction:ltr;&quot;&gt;&lt;font style=&quot;font-size:9.88px;font-family:GOST type B;color:#000000;direction:ltr;letter-spacing:0px;line-height:120%;opacity:1&quot;&gt;&lt;i&gt;Тушинская Е. В.&lt;/i&gt;&lt;/font&gt;&lt;/p&gt;&lt;/div&gt;" tags="Фон" id="T4Ert9zSi3fNBj01HHRG-47">
          <mxCell style="verticalAlign=middle;align=left;overflow=width;vsdxID=218;fillColor=none;gradientColor=none;shape=stencil(nZBLDoAgDERP0z3SIyjew0SURgSD+Lu9kMZoXLhwN9O+tukAlrNpJg1SzDH4QW/URgNYgZTkjA4UkwJUgGXng+6DX1zLfmoymdXo17xh5zmRJ6Q42BWCfc2oJfdAr+Yv+AP9Cb7OJ3H/2JG1HNGz/84klThPVCc=);strokeColor=none;strokeWidth=2;spacingTop=-2;spacingBottom=-2;spacingLeft=-2;spacingRight=-2;points=[];labelBackgroundColor=none;rounded=0;html=1;whiteSpace=wrap;" parent="1" vertex="1">
            <mxGeometry x="150" y="1062" width="76" height="11" as="geometry" />
          </mxCell>
        </UserObject>
        <UserObject label="&lt;div style=&quot;font-size: 1px&quot;&gt;&lt;p style=&quot;text-align:left;margin-left:0;margin-right:0;margin-top:0px;margin-bottom:0px;text-indent:0;vertical-align:middle;direction:ltr;&quot;&gt;&lt;font style=&quot;font-size:9.88px;font-family:Arial;color:#000000;direction:ltr;letter-spacing:0px;line-height:120%;opacity:1&quot;&gt;&lt;i&gt;&lt;br/&gt;&lt;br/&gt;&lt;/i&gt;&lt;/font&gt;&lt;/p&gt;&lt;/div&gt;" tags="Фон" id="T4Ert9zSi3fNBj01HHRG-48">
          <mxCell style="verticalAlign=middle;align=left;overflow=width;vsdxID=221;fillColor=none;gradientColor=none;shape=stencil(nZBLDoAgDERP0z3SIyjew0SURgSD+Lu9kMZoXLhwN9O+tukAlrNpJg1SzDH4QW/URgNYgZTkjA4UkwJUgGXng+6DX1zLfmoymdXo17xh5zmRJ6Q42BWCfc2oJfdAr+Yv+AP9Cb7OJ3H/2JG1HNGz/84klThPVCc=);strokeColor=none;strokeWidth=2;spacingTop=-2;spacingBottom=-2;spacingLeft=-2;spacingRight=-2;points=[];labelBackgroundColor=none;rounded=0;html=1;whiteSpace=wrap;" parent="1" vertex="1">
            <mxGeometry x="150" y="1120" width="80" height="11" as="geometry" />
          </mxCell>
        </UserObject>
        <UserObject label="&lt;div style=&quot;font-size: 1px&quot;&gt;&lt;font style=&quot;font-size:9.88px;font-family:GOST type B;color:#000000;direction:ltr;letter-spacing:0px;line-height:120%;opacity:1&quot;&gt;&lt;i&gt;3&lt;/i&gt;&lt;/font&gt;&lt;/div&gt;" tags="Фон" id="T4Ert9zSi3fNBj01HHRG-49">
          <mxCell style="verticalAlign=middle;align=center;overflow=width;vsdxID=224;fillColor=none;gradientColor=none;shape=stencil(nZBLDoAgDERP0z3SIyjew0SURgSD+Lu9kMZoXLhwN9O+tukAlrNpJg1SzDH4QW/URgNYgZTkjA4UkwJUgGXng+6DX1zLfmoymdXo17xh5zmRJ6Q42BWCfc2oJfdAr+Yv+AP9Cb7OJ3H/2JG1HNGz/84klThPVCc=);strokeColor=none;strokeWidth=2;spacingTop=-2;spacingBottom=-2;spacingLeft=-2;spacingRight=-2;points=[];labelBackgroundColor=none;rounded=0;html=1;whiteSpace=wrap;" parent="1" vertex="1">
            <mxGeometry x="731" y="1080" width="49" height="17" as="geometry" />
          </mxCell>
        </UserObject>
        <UserObject label="&lt;div style=&quot;font-size: 1px&quot;&gt;&lt;font style=&quot;font-size:12.7px;font-family:GOST type B;color:#000000;direction:ltr;letter-spacing:0px;line-height:120%;opacity:1&quot;&gt;&lt;i&gt;1:1&lt;br/&gt;&lt;/i&gt;&lt;/font&gt;&lt;/div&gt;" tags="Фон" id="T4Ert9zSi3fNBj01HHRG-50">
          <mxCell style="verticalAlign=middle;align=center;overflow=width;vsdxID=225;fillColor=none;gradientColor=none;shape=stencil(nZBLDoAgDERP0z3SIyjew0SURgSD+Lu9kMZoXLhwN9O+tukAlrNpJg1SzDH4QW/URgNYgZTkjA4UkwJUgGXng+6DX1zLfmoymdXo17xh5zmRJ6Q42BWCfc2oJfdAr+Yv+AP9Cb7OJ3H/2JG1HNGz/84klThPVCc=);strokeColor=none;strokeWidth=2;spacingTop=-2;spacingBottom=-2;spacingLeft=-2;spacingRight=-2;points=[];labelBackgroundColor=none;rounded=0;html=1;whiteSpace=wrap;" parent="1" vertex="1">
            <mxGeometry x="751" y="1040" width="49" height="17" as="geometry" />
          </mxCell>
        </UserObject>
        <UserObject label="&lt;div style=&quot;font-size: 1px&quot;&gt;&lt;p style=&quot;text-align:center;margin-left:0;margin-right:0;margin-top:0px;margin-bottom:0px;text-indent:0;vertical-align:middle;direction:ltr;&quot;&gt;&lt;font style=&quot;font-size:14.11px;font-family:GOST type B;color:#000000;direction:ltr;letter-spacing:0px;line-height:120%;opacity:1&quot;&gt;&lt;i&gt;Кафедра информатики&lt;br&gt;&lt;/i&gt;&lt;/font&gt;&lt;/p&gt;&lt;p style=&quot;text-align:center;margin-left:0;margin-right:0;margin-top:0px;margin-bottom:0px;text-indent:0;vertical-align:middle;direction:ltr;&quot;&gt;&lt;font style=&quot;font-size:14.11px;font-family:GOST type B;color:#000000;direction:ltr;letter-spacing:0px;line-height:120%;opacity:1&quot;&gt;&lt;i&gt;гр. &lt;/i&gt;&lt;/font&gt;&lt;font style=&quot;font-size:14.11px;font-family:GOST type B;color:#000000;direction:ltr;letter-spacing:0px;line-height:120%;opacity:1&quot;&gt;&lt;i&gt;3&lt;/i&gt;&lt;/font&gt;&lt;font style=&quot;font-size:14.11px;font-family:GOST type B;color:#000000;direction:ltr;letter-spacing:0px;line-height:120%;opacity:1&quot;&gt;&lt;i&gt;53504&lt;/i&gt;&lt;/font&gt;&lt;font style=&quot;font-size:14.11px;font-family:GOST type B;color:#000000;direction:ltr;letter-spacing:0px;line-height:120%;opacity:1&quot;&gt;&lt;i&gt;&lt;br&gt;&lt;/i&gt;&lt;/font&gt;&lt;/p&gt;&lt;/div&gt;" tags="Фон" id="T4Ert9zSi3fNBj01HHRG-51">
          <mxCell style="verticalAlign=middle;align=center;overflow=width;vsdxID=226;fillColor=none;gradientColor=none;shape=stencil(nZBLDoAgDERP0z3SIyjew0SURgSD+Lu9kMZoXLhwN9O+tukAlrNpJg1SzDH4QW/URgNYgZTkjA4UkwJUgGXng+6DX1zLfmoymdXo17xh5zmRJ6Q42BWCfc2oJfdAr+Yv+AP9Cb7OJ3H/2JG1HNGz/84klThPVCc=);strokeColor=none;strokeWidth=2;spacingTop=-2;spacingBottom=-2;spacingLeft=-2;spacingRight=-2;points=[];labelBackgroundColor=none;rounded=0;html=1;whiteSpace=wrap;" parent="1" vertex="1">
            <mxGeometry x="632" y="1112" width="168" height="32" as="geometry" />
          </mxCell>
        </UserObject>
        <UserObject label="&lt;div style=&quot;font-size: 1px&quot;&gt;&lt;p style=&quot;text-align:center;margin-left:0;margin-right:0;margin-top:0px;margin-bottom:0px;text-indent:0;vertical-align:middle;direction:ltr;&quot;&gt;&lt;font style=&quot;font-size:22.58px;font-family:GOST type B;color:#000000;direction:ltr;letter-spacing:0px;line-height:120%;opacity:1&quot;&gt;&lt;i&gt;ГУИР.&lt;/i&gt;&lt;/font&gt;&lt;font style=&quot;font-size:22.58px;font-family:GOST type B;color:#000000;direction:ltr;letter-spacing:0px;line-height:120%;opacity:1&quot;&gt;&lt;i&gt;6-05&lt;/i&gt;&lt;/font&gt;&lt;font style=&quot;font-size:22.58px;font-family:GOST type B;color:#000000;direction:ltr;letter-spacing:0px;line-height:120%;opacity:1&quot;&gt;&lt;i&gt;-&lt;/i&gt;&lt;/font&gt;&lt;font style=&quot;font-size:22.58px;font-family:GOST type B;color:#000000;direction:ltr;letter-spacing:0px;line-height:120%;opacity:1&quot;&gt;&lt;i&gt;0612&lt;/i&gt;&lt;/font&gt;&lt;font style=&quot;font-size:22.58px;font-family:GOST type B;color:#000000;direction:ltr;letter-spacing:0px;line-height:120%;opacity:1&quot;&gt;&lt;i&gt;-&lt;/i&gt;&lt;/font&gt;&lt;font style=&quot;font-size:22.58px;font-family:GOST type B;color:#000000;direction:ltr;letter-spacing:0px;line-height:120%;opacity:1&quot;&gt;&lt;i&gt;0&lt;/i&gt;&lt;/font&gt;&lt;font style=&quot;font-size:22.58px;font-family:GOST type B;color:#000000;direction:ltr;letter-spacing:0px;line-height:120%;opacity:1&quot;&gt;&lt;i&gt;2&lt;/i&gt;&lt;/font&gt;&lt;font style=&quot;font-size:22.58px;font-family:GOST type B;color:#000000;direction:ltr;letter-spacing:0px;line-height:120%;opacity:1&quot;&gt;&lt;i&gt; 022&lt;/i&gt;&lt;/font&gt;&lt;font style=&quot;font-size:22.58px;font-family:GOST type B;color:#000000;direction:ltr;letter-spacing:0px;line-height:120%;opacity:1&quot;&gt;&lt;i&gt;&amp;nbsp;П3&lt;br&gt;&lt;/i&gt;&lt;/font&gt;&lt;/p&gt;&lt;/div&gt;" tags="Фон" id="T4Ert9zSi3fNBj01HHRG-52">
          <mxCell style="verticalAlign=middle;align=center;overflow=width;vsdxID=228;fillColor=none;gradientColor=none;shape=stencil(nZBLDoAgDERP0z3SIyjew0SURgSD+Lu9kMZoXLhwN9O+tukAlrNpJg1SzDH4QW/URgNYgZTkjA4UkwJUgGXng+6DX1zLfmoymdXo17xh5zmRJ6Q42BWCfc2oJfdAr+Yv+AP9Cb7OJ3H/2JG1HNGz/84klThPVCc=);strokeColor=none;strokeWidth=2;spacingTop=-2;spacingBottom=-2;spacingLeft=-2;spacingRight=-2;points=[];labelBackgroundColor=none;rounded=0;html=1;whiteSpace=wrap;" parent="1" vertex="1">
            <mxGeometry x="340" y="952" width="456" height="32" as="geometry" />
          </mxCell>
        </UserObject>
        <UserObject label="&lt;div style=&quot;font-size: 1px&quot;&gt;&lt;p style=&quot;text-align:center;margin-left:0;margin-right:0;margin-top:0px;margin-bottom:0px;text-indent:0;vertical-align:middle;direction:ltr;&quot;&gt;&lt;font style=&quot;font-size:22.58px;font-family:GOST type B;color:#000000;direction:ltr;letter-spacing:0px;line-height:120%;opacity:1&quot;&gt;&lt;i&gt;ГУИР.&lt;/i&gt;&lt;/font&gt;&lt;font style=&quot;font-size:22.58px;font-family:GOST type B;color:#000000;direction:ltr;letter-spacing:0px;line-height:120%;opacity:1&quot;&gt;&lt;i&gt;6-05&lt;/i&gt;&lt;/font&gt;&lt;font style=&quot;font-size:22.58px;font-family:GOST type B;color:#000000;direction:ltr;letter-spacing:0px;line-height:120%;opacity:1&quot;&gt;&lt;i&gt;-0&lt;/i&gt;&lt;/font&gt;&lt;font style=&quot;font-size:22.58px;font-family:GOST type B;color:#000000;direction:ltr;letter-spacing:0px;line-height:120%;opacity:1&quot;&gt;&lt;i&gt;612&lt;/i&gt;&lt;/font&gt;&lt;font style=&quot;font-size:22.58px;font-family:GOST type B;color:#000000;direction:ltr;letter-spacing:0px;line-height:120%;opacity:1&quot;&gt;&lt;i&gt;-&lt;/i&gt;&lt;/font&gt;&lt;font style=&quot;font-size:22.58px;font-family:GOST type B;color:#000000;direction:ltr;letter-spacing:0px;line-height:120%;opacity:1&quot;&gt;&lt;i&gt;0&lt;/i&gt;&lt;/font&gt;&lt;font style=&quot;font-size:22.58px;font-family:GOST type B;color:#000000;direction:ltr;letter-spacing:0px;line-height:120%;opacity:1&quot;&gt;&lt;i&gt;2&lt;/i&gt;&lt;/font&gt;&lt;font style=&quot;font-size:22.58px;font-family:GOST type B;color:#000000;direction:ltr;letter-spacing:0px;line-height:120%;opacity:1&quot;&gt;&lt;i&gt; 022&lt;/i&gt;&lt;/font&gt;&lt;font style=&quot;font-size:22.58px;font-family:GOST type B;color:#000000;direction:ltr;letter-spacing:0px;line-height:120%;opacity:1&quot;&gt;&lt;i&gt;&amp;nbsp;П3&lt;br&gt;&lt;/i&gt;&lt;/font&gt;&lt;/p&gt;&lt;/div&gt;" tags="Фон" id="T4Ert9zSi3fNBj01HHRG-53">
          <mxCell style="verticalAlign=middle;align=center;overflow=width;vsdxID=290;rotation=270;fillColor=none;gradientColor=none;shape=stencil(nZBLDoAgDERP0z3SIyjew0SURgSD+Lu9kMZoXLhwN9O+tukAlrNpJg1SzDH4QW/URgNYgZTkjA4UkwJUgGXng+6DX1zLfmoymdXo17xh5zmRJ6Q42BWCfc2oJfdAr+Yv+AP9Cb7OJ3H/2JG1HNGz/84klThPVCc=);strokeColor=none;strokeWidth=2;spacingTop=-2;spacingBottom=-2;spacingLeft=-2;spacingRight=-2;points=[];labelBackgroundColor=none;rounded=0;html=1;whiteSpace=wrap;" parent="1" vertex="1">
            <mxGeometry x="652" y="152" width="280" height="24" as="geometry" />
          </mxCell>
        </UserObject>
        <UserObject label="&lt;div style=&quot;&quot;&gt;&lt;font size=&quot;1&quot; face=&quot;GOST type B&quot;&gt;&lt;i&gt;1&lt;/i&gt;&lt;/font&gt;&lt;/div&gt;" tags="Фон" id="T4Ert9zSi3fNBj01HHRG-54">
          <mxCell style="verticalAlign=middle;align=center;overflow=width;vsdxID=296;fillColor=none;gradientColor=none;shape=stencil(nZBLDoAgDERP0z3SIyjew0SURgSD+Lu9kMZoXLhwN9O+tukAlrNpJg1SzDH4QW/URgNYgZTkjA4UkwJUgGXng+6DX1zLfmoymdXo17xh5zmRJ6Q42BWCfc2oJfdAr+Yv+AP9Cb7OJ3H/2JG1HNGz/84klThPVCc=);strokeColor=none;strokeWidth=2;spacingTop=-2;spacingBottom=-2;spacingLeft=-2;spacingRight=-2;points=[];labelBackgroundColor=none;rounded=0;html=1;whiteSpace=wrap;" parent="1" vertex="1">
            <mxGeometry x="642" y="1080" width="49" height="17" as="geometry" />
          </mxCell>
        </UserObject>
        <UserObject label="" tags="Фон" id="T4Ert9zSi3fNBj01HHRG-55">
          <mxCell style="vsdxID=292;edgeStyle=none;startArrow=none;endArrow=block;startSize=5;endSize=5;strokeWidth=2;strokeColor=#000000;spacingTop=0;spacingBottom=0;spacingLeft=0;spacingRight=0;verticalAlign=middle;html=1;labelBackgroundColor=#ffffff;rounded=0;" parent="1" edge="1">
            <mxGeometry relative="1" as="geometry">
              <Array as="points" />
              <mxPoint x="772" y="27" as="sourcePoint" />
              <mxPoint x="772" y="308" as="targetPoint" />
            </mxGeometry>
          </mxCell>
        </UserObject>
        <mxCell id="T4Ert9zSi3fNBj01HHRG-59" parent="1" vertex="1">
          <mxGeometry x="772" y="308" as="geometry" />
        </mxCell>
        <mxCell id="T4Ert9zSi3fNBj01HHRG-60" parent="1" vertex="1">
          <mxGeometry x="815" y="308" as="geometry" />
        </mxCell>
        <UserObject label="" tags="Соединительная_линия" id="T4Ert9zSi3fNBj01HHRG-61">
          <mxCell style="vsdxID=295;edgeStyle=none;startArrow=none;endArrow=none;startSize=9;endSize=9;strokeWidth=2;strokeColor=#000000;spacingTop=0;spacingBottom=0;spacingLeft=0;spacingRight=0;verticalAlign=middle;html=1;labelBackgroundColor=#ffffff;rounded=0;" parent="1" source="T4Ert9zSi3fNBj01HHRG-59" target="T4Ert9zSi3fNBj01HHRG-60" edge="1">
            <mxGeometry relative="1" as="geometry">
              <mxPoint as="offset" />
              <Array as="points" />
            </mxGeometry>
          </mxCell>
        </UserObject>
        <mxCell id="bWPqm9X892vFMa2IZU0u-1" value="Начало" style="ellipse;whiteSpace=wrap;html=1;" vertex="1" parent="1">
          <mxGeometry x="279.43" y="40" width="120" height="50" as="geometry" />
        </mxCell>
        <mxCell id="bWPqm9X892vFMa2IZU0u-2" value="" style="endArrow=classic;html=1;rounded=0;exitX=0.5;exitY=1;exitDx=0;exitDy=0;" edge="1" parent="1" source="bWPqm9X892vFMa2IZU0u-1">
          <mxGeometry width="50" height="50" relative="1" as="geometry">
            <mxPoint x="395.43" y="150" as="sourcePoint" />
            <mxPoint x="339.43" y="110" as="targetPoint" />
          </mxGeometry>
        </mxCell>
        <mxCell id="bWPqm9X892vFMa2IZU0u-3" value="AddTransitionRuleAsync(rule)" style="rounded=0;whiteSpace=wrap;html=1;" vertex="1" parent="1">
          <mxGeometry x="234.43" y="110" width="210" height="30" as="geometry" />
        </mxCell>
        <mxCell id="bWPqm9X892vFMa2IZU0u-4" value="" style="endArrow=classic;html=1;rounded=0;exitX=0.5;exitY=1;exitDx=0;exitDy=0;" edge="1" parent="1" source="bWPqm9X892vFMa2IZU0u-3">
          <mxGeometry width="50" height="50" relative="1" as="geometry">
            <mxPoint x="335.43" y="210" as="sourcePoint" />
            <mxPoint x="339.43" y="170" as="targetPoint" />
          </mxGeometry>
        </mxCell>
        <mxCell id="bWPqm9X892vFMa2IZU0u-5" value="найдено ли правило" style="rhombus;whiteSpace=wrap;html=1;" vertex="1" parent="1">
          <mxGeometry x="254.43" y="170" width="169" height="40" as="geometry" />
        </mxCell>
        <mxCell id="bWPqm9X892vFMa2IZU0u-6" value="" style="endArrow=classic;html=1;rounded=0;exitX=0;exitY=0.5;exitDx=0;exitDy=0;" edge="1" parent="1">
          <mxGeometry width="50" height="50" relative="1" as="geometry">
            <mxPoint x="205.43" y="190" as="sourcePoint" />
            <mxPoint x="205.43" y="230" as="targetPoint" />
          </mxGeometry>
        </mxCell>
        <mxCell id="bWPqm9X892vFMa2IZU0u-7" value="" style="endArrow=none;html=1;rounded=0;entryX=0;entryY=0.5;entryDx=0;entryDy=0;" edge="1" parent="1" target="bWPqm9X892vFMa2IZU0u-5">
          <mxGeometry width="50" height="50" relative="1" as="geometry">
            <mxPoint x="205.43" y="190" as="sourcePoint" />
            <mxPoint x="255.43" y="150" as="targetPoint" />
          </mxGeometry>
        </mxCell>
        <mxCell id="bWPqm9X892vFMa2IZU0u-8" value="нет" style="text;html=1;align=center;verticalAlign=middle;whiteSpace=wrap;rounded=0;" vertex="1" parent="1">
          <mxGeometry x="214.43" y="170" width="31" height="10" as="geometry" />
        </mxCell>
        <mxCell id="bWPqm9X892vFMa2IZU0u-9" value="конец" style="ellipse;whiteSpace=wrap;html=1;" vertex="1" parent="1">
          <mxGeometry x="165.43" y="230" width="80" height="30" as="geometry" />
        </mxCell>
        <mxCell id="bWPqm9X892vFMa2IZU0u-10" value="" style="endArrow=none;html=1;rounded=0;" edge="1" parent="1">
          <mxGeometry width="50" height="50" relative="1" as="geometry">
            <mxPoint x="423.43" y="189.72" as="sourcePoint" />
            <mxPoint x="565.43" y="190" as="targetPoint" />
          </mxGeometry>
        </mxCell>
        <mxCell id="bWPqm9X892vFMa2IZU0u-11" value="" style="endArrow=classic;html=1;rounded=0;entryX=0.5;entryY=0;entryDx=0;entryDy=0;" edge="1" parent="1" target="bWPqm9X892vFMa2IZU0u-12">
          <mxGeometry width="50" height="50" relative="1" as="geometry">
            <mxPoint x="565.43" y="190" as="sourcePoint" />
            <mxPoint x="565.43" y="210" as="targetPoint" />
          </mxGeometry>
        </mxCell>
        <mxCell id="bWPqm9X892vFMa2IZU0u-12" value="rule==isAllowed" style="rhombus;whiteSpace=wrap;html=1;" vertex="1" parent="1">
          <mxGeometry x="495.43" y="220" width="140" height="40" as="geometry" />
        </mxCell>
        <mxCell id="bWPqm9X892vFMa2IZU0u-13" value="" style="endArrow=none;html=1;rounded=0;entryX=0;entryY=0.5;entryDx=0;entryDy=0;" edge="1" parent="1" target="bWPqm9X892vFMa2IZU0u-12">
          <mxGeometry width="50" height="50" relative="1" as="geometry">
            <mxPoint x="445.43" y="240" as="sourcePoint" />
            <mxPoint x="475.43" y="220" as="targetPoint" />
          </mxGeometry>
        </mxCell>
        <mxCell id="bWPqm9X892vFMa2IZU0u-14" value="нет" style="text;html=1;align=center;verticalAlign=middle;whiteSpace=wrap;rounded=0;" vertex="1" parent="1">
          <mxGeometry x="459.93" y="210" width="30" height="20" as="geometry" />
        </mxCell>
        <mxCell id="bWPqm9X892vFMa2IZU0u-15" value="конец" style="ellipse;whiteSpace=wrap;html=1;" vertex="1" parent="1">
          <mxGeometry x="399.43" y="280" width="90" height="30" as="geometry" />
        </mxCell>
        <mxCell id="bWPqm9X892vFMa2IZU0u-16" value="" style="endArrow=none;html=1;rounded=0;exitX=1;exitY=0.5;exitDx=0;exitDy=0;strokeColor=#0D0D0D;" edge="1" parent="1" source="bWPqm9X892vFMa2IZU0u-12">
          <mxGeometry width="50" height="50" relative="1" as="geometry">
            <mxPoint x="625.43" y="200" as="sourcePoint" />
            <mxPoint x="685.43" y="240" as="targetPoint" />
          </mxGeometry>
        </mxCell>
        <mxCell id="bWPqm9X892vFMa2IZU0u-17" value="&lt;span style=&quot;color: rgb(0, 0, 0); font-family: Helvetica; font-size: 12px; font-style: normal; font-variant-ligatures: normal; font-variant-caps: normal; font-weight: 400; letter-spacing: normal; orphans: 2; text-align: center; text-indent: 0px; text-transform: none; widows: 2; word-spacing: 0px; -webkit-text-stroke-width: 0px; white-space: normal; background-color: rgb(251, 251, 251); text-decoration-thickness: initial; text-decoration-style: initial; text-decoration-color: initial; display: inline !important; float: none;&quot;&gt;да&lt;/span&gt;" style="text;whiteSpace=wrap;html=1;" vertex="1" parent="1">
          <mxGeometry x="642" y="210" width="20" height="20" as="geometry" />
        </mxCell>
        <mxCell id="bWPqm9X892vFMa2IZU0u-18" value="" style="endArrow=classic;html=1;rounded=0;" edge="1" parent="1">
          <mxGeometry width="50" height="50" relative="1" as="geometry">
            <mxPoint x="565.43" y="270" as="sourcePoint" />
            <mxPoint x="565.43" y="330" as="targetPoint" />
          </mxGeometry>
        </mxCell>
        <mxCell id="bWPqm9X892vFMa2IZU0u-19" value="" style="endArrow=classic;html=1;rounded=0;entryX=0.519;entryY=-0.001;entryDx=0;entryDy=0;entryPerimeter=0;" edge="1" parent="1" target="bWPqm9X892vFMa2IZU0u-15">
          <mxGeometry width="50" height="50" relative="1" as="geometry">
            <mxPoint x="445.43" y="240" as="sourcePoint" />
            <mxPoint x="449.43" y="210" as="targetPoint" />
          </mxGeometry>
        </mxCell>
        <mxCell id="bWPqm9X892vFMa2IZU0u-20" value="" style="endArrow=none;html=1;rounded=0;" edge="1" parent="1">
          <mxGeometry width="50" height="50" relative="1" as="geometry">
            <mxPoint x="685.43" y="270" as="sourcePoint" />
            <mxPoint x="685.43" y="240" as="targetPoint" />
          </mxGeometry>
        </mxCell>
        <mxCell id="bWPqm9X892vFMa2IZU0u-21" value="" style="endArrow=none;html=1;rounded=0;" edge="1" parent="1">
          <mxGeometry width="50" height="50" relative="1" as="geometry">
            <mxPoint x="565.43" y="270" as="sourcePoint" />
            <mxPoint x="685.43" y="270" as="targetPoint" />
          </mxGeometry>
        </mxCell>
        <mxCell id="bWPqm9X892vFMa2IZU0u-22" value="rule требует attachment" style="rhombus;whiteSpace=wrap;html=1;" vertex="1" parent="1">
          <mxGeometry x="500.43" y="330" width="130" height="60" as="geometry" />
        </mxCell>
        <mxCell id="bWPqm9X892vFMa2IZU0u-23" value="" style="endArrow=classic;html=1;rounded=0;" edge="1" parent="1">
          <mxGeometry width="50" height="50" relative="1" as="geometry">
            <mxPoint x="445.43" y="360" as="sourcePoint" />
            <mxPoint x="445.43" y="390" as="targetPoint" />
          </mxGeometry>
        </mxCell>
        <mxCell id="bWPqm9X892vFMa2IZU0u-24" value="" style="endArrow=none;html=1;rounded=0;entryX=0;entryY=0.5;entryDx=0;entryDy=0;" edge="1" parent="1" target="bWPqm9X892vFMa2IZU0u-22">
          <mxGeometry width="50" height="50" relative="1" as="geometry">
            <mxPoint x="445.43" y="360" as="sourcePoint" />
            <mxPoint x="495.43" y="350" as="targetPoint" />
          </mxGeometry>
        </mxCell>
        <mxCell id="bWPqm9X892vFMa2IZU0u-26" value="" style="endArrow=classic;html=1;rounded=0;exitX=0.5;exitY=1;exitDx=0;exitDy=0;" edge="1" parent="1">
          <mxGeometry width="50" height="50" relative="1" as="geometry">
            <mxPoint x="444.93000000000006" y="420" as="sourcePoint" />
            <mxPoint x="445.43" y="440" as="targetPoint" />
          </mxGeometry>
        </mxCell>
        <mxCell id="bWPqm9X892vFMa2IZU0u-27" value="конец" style="ellipse;whiteSpace=wrap;html=1;" vertex="1" parent="1">
          <mxGeometry x="399.93" y="440" width="90" height="30" as="geometry" />
        </mxCell>
        <mxCell id="bWPqm9X892vFMa2IZU0u-28" value="" style="endArrow=none;html=1;rounded=0;exitX=1;exitY=0.5;exitDx=0;exitDy=0;" edge="1" parent="1" source="bWPqm9X892vFMa2IZU0u-22">
          <mxGeometry width="50" height="50" relative="1" as="geometry">
            <mxPoint x="635.43" y="370" as="sourcePoint" />
            <mxPoint x="685.43" y="360" as="targetPoint" />
          </mxGeometry>
        </mxCell>
        <mxCell id="bWPqm9X892vFMa2IZU0u-29" value="" style="endArrow=none;html=1;rounded=0;" edge="1" parent="1">
          <mxGeometry width="50" height="50" relative="1" as="geometry">
            <mxPoint x="685.43" y="400" as="sourcePoint" />
            <mxPoint x="685.43" y="360" as="targetPoint" />
          </mxGeometry>
        </mxCell>
        <mxCell id="bWPqm9X892vFMa2IZU0u-30" value="" style="endArrow=none;html=1;rounded=0;" edge="1" parent="1">
          <mxGeometry width="50" height="50" relative="1" as="geometry">
            <mxPoint x="565.43" y="400" as="sourcePoint" />
            <mxPoint x="685.43" y="400" as="targetPoint" />
          </mxGeometry>
        </mxCell>
        <mxCell id="bWPqm9X892vFMa2IZU0u-31" value="" style="endArrow=classic;html=1;rounded=0;" edge="1" parent="1">
          <mxGeometry width="50" height="50" relative="1" as="geometry">
            <mxPoint x="565.43" y="400" as="sourcePoint" />
            <mxPoint x="565.43" y="490" as="targetPoint" />
          </mxGeometry>
        </mxCell>
        <mxCell id="bWPqm9X892vFMa2IZU0u-32" value="rule требует commit-link" style="rhombus;whiteSpace=wrap;html=1;" vertex="1" parent="1">
          <mxGeometry x="482.93" y="490" width="165" height="60" as="geometry" />
        </mxCell>
        <mxCell id="bWPqm9X892vFMa2IZU0u-33" value="" style="endArrow=none;html=1;rounded=0;entryX=0;entryY=0.5;entryDx=0;entryDy=0;" edge="1" parent="1" target="bWPqm9X892vFMa2IZU0u-32">
          <mxGeometry width="50" height="50" relative="1" as="geometry">
            <mxPoint x="445.43" y="520" as="sourcePoint" />
            <mxPoint x="465.43" y="510" as="targetPoint" />
          </mxGeometry>
        </mxCell>
        <mxCell id="bWPqm9X892vFMa2IZU0u-34" value="" style="endArrow=classic;html=1;rounded=0;" edge="1" parent="1">
          <mxGeometry width="50" height="50" relative="1" as="geometry">
            <mxPoint x="445.43" y="520" as="sourcePoint" />
            <mxPoint x="445.43" y="550" as="targetPoint" />
          </mxGeometry>
        </mxCell>
        <mxCell id="bWPqm9X892vFMa2IZU0u-36" value="конец" style="ellipse;whiteSpace=wrap;html=1;" vertex="1" parent="1">
          <mxGeometry x="411" y="600" width="67.87" height="43" as="geometry" />
        </mxCell>
        <mxCell id="bWPqm9X892vFMa2IZU0u-37" value="" style="endArrow=classic;html=1;rounded=0;exitX=0.486;exitY=1.011;exitDx=0;exitDy=0;exitPerimeter=0;" edge="1" parent="1">
          <mxGeometry width="50" height="50" relative="1" as="geometry">
            <mxPoint x="445.60000000000014" y="580.3299999999999" as="sourcePoint" />
            <mxPoint x="445.43" y="600" as="targetPoint" />
          </mxGeometry>
        </mxCell>
        <mxCell id="bWPqm9X892vFMa2IZU0u-38" value="" style="endArrow=none;html=1;rounded=0;exitX=1;exitY=0.5;exitDx=0;exitDy=0;" edge="1" parent="1" source="bWPqm9X892vFMa2IZU0u-32">
          <mxGeometry width="50" height="50" relative="1" as="geometry">
            <mxPoint x="655.43" y="540" as="sourcePoint" />
            <mxPoint x="685.43" y="520" as="targetPoint" />
          </mxGeometry>
        </mxCell>
        <mxCell id="bWPqm9X892vFMa2IZU0u-39" value="" style="endArrow=none;html=1;rounded=0;" edge="1" parent="1">
          <mxGeometry width="50" height="50" relative="1" as="geometry">
            <mxPoint x="685.43" y="560" as="sourcePoint" />
            <mxPoint x="685.43" y="520" as="targetPoint" />
          </mxGeometry>
        </mxCell>
        <mxCell id="bWPqm9X892vFMa2IZU0u-40" value="" style="endArrow=none;html=1;rounded=0;" edge="1" parent="1">
          <mxGeometry width="50" height="50" relative="1" as="geometry">
            <mxPoint x="575.43" y="560" as="sourcePoint" />
            <mxPoint x="685.43" y="560" as="targetPoint" />
          </mxGeometry>
        </mxCell>
        <mxCell id="bWPqm9X892vFMa2IZU0u-41" value="" style="endArrow=classic;html=1;rounded=0;" edge="1" parent="1">
          <mxGeometry width="50" height="50" relative="1" as="geometry">
            <mxPoint x="573.43" y="560" as="sourcePoint" />
            <mxPoint x="573.5999999999999" y="640" as="targetPoint" />
          </mxGeometry>
        </mxCell>
        <mxCell id="bWPqm9X892vFMa2IZU0u-42" value="&lt;font style=&quot;font-size: 10px;&quot;&gt;rule требует commit-link&lt;/font&gt;&lt;div&gt;&lt;font style=&quot;font-size: 10px;&quot;&gt;и attachment&lt;/font&gt;&lt;/div&gt;" style="rhombus;whiteSpace=wrap;html=1;" vertex="1" parent="1">
          <mxGeometry x="491.3" y="640" width="165" height="60" as="geometry" />
        </mxCell>
        <mxCell id="bWPqm9X892vFMa2IZU0u-43" value="" style="endArrow=none;html=1;rounded=0;entryX=0;entryY=0.5;entryDx=0;entryDy=0;" edge="1" parent="1" target="bWPqm9X892vFMa2IZU0u-42">
          <mxGeometry width="50" height="50" relative="1" as="geometry">
            <mxPoint x="457.00000000000006" y="670" as="sourcePoint" />
            <mxPoint x="477.00000000000006" y="660" as="targetPoint" />
          </mxGeometry>
        </mxCell>
        <mxCell id="bWPqm9X892vFMa2IZU0u-44" value="" style="endArrow=classic;html=1;rounded=0;" edge="1" parent="1">
          <mxGeometry width="50" height="50" relative="1" as="geometry">
            <mxPoint x="457.00000000000006" y="670" as="sourcePoint" />
            <mxPoint x="457.00000000000006" y="700" as="targetPoint" />
          </mxGeometry>
        </mxCell>
        <mxCell id="bWPqm9X892vFMa2IZU0u-46" value="конец" style="ellipse;whiteSpace=wrap;html=1;" vertex="1" parent="1">
          <mxGeometry x="423.43" y="760" width="67.87" height="43" as="geometry" />
        </mxCell>
        <mxCell id="bWPqm9X892vFMa2IZU0u-47" value="" style="endArrow=none;html=1;rounded=0;exitX=1;exitY=0.5;exitDx=0;exitDy=0;" edge="1" parent="1" source="bWPqm9X892vFMa2IZU0u-42">
          <mxGeometry width="50" height="50" relative="1" as="geometry">
            <mxPoint x="667" y="690" as="sourcePoint" />
            <mxPoint x="697" y="670" as="targetPoint" />
          </mxGeometry>
        </mxCell>
        <mxCell id="bWPqm9X892vFMa2IZU0u-48" value="" style="endArrow=none;html=1;rounded=0;" edge="1" parent="1">
          <mxGeometry width="50" height="50" relative="1" as="geometry">
            <mxPoint x="697" y="710" as="sourcePoint" />
            <mxPoint x="697" y="670" as="targetPoint" />
          </mxGeometry>
        </mxCell>
        <mxCell id="bWPqm9X892vFMa2IZU0u-49" value="" style="endArrow=none;html=1;rounded=0;" edge="1" parent="1">
          <mxGeometry width="50" height="50" relative="1" as="geometry">
            <mxPoint x="577" y="710" as="sourcePoint" />
            <mxPoint x="697" y="710" as="targetPoint" />
          </mxGeometry>
        </mxCell>
        <mxCell id="bWPqm9X892vFMa2IZU0u-50" value="" style="endArrow=classic;html=1;rounded=0;" edge="1" parent="1">
          <mxGeometry width="50" height="50" relative="1" as="geometry">
            <mxPoint x="577" y="710" as="sourcePoint" />
            <mxPoint x="575.43" y="800" as="targetPoint" />
          </mxGeometry>
        </mxCell>
        <mxCell id="bWPqm9X892vFMa2IZU0u-51" value="" style="endArrow=classic;html=1;rounded=0;exitX=0.5;exitY=1;exitDx=0;exitDy=0;entryX=0.5;entryY=0;entryDx=0;entryDy=0;" edge="1" parent="1" target="bWPqm9X892vFMa2IZU0u-46">
          <mxGeometry width="50" height="50" relative="1" as="geometry">
            <mxPoint x="456.5" y="729.9999999999999" as="sourcePoint" />
            <mxPoint x="515.43" y="730" as="targetPoint" />
          </mxGeometry>
        </mxCell>
        <mxCell id="bWPqm9X892vFMa2IZU0u-53" value="" style="endArrow=classic;html=1;rounded=0;exitX=0.403;exitY=1.056;exitDx=0;exitDy=0;exitPerimeter=0;" edge="1" parent="1">
          <mxGeometry width="50" height="50" relative="1" as="geometry">
            <mxPoint x="574.0099999999999" y="839.9999999999999" as="sourcePoint" />
            <mxPoint x="573.5899999999999" y="877.76" as="targetPoint" />
          </mxGeometry>
        </mxCell>
        <mxCell id="bWPqm9X892vFMa2IZU0u-54" value="конец" style="ellipse;whiteSpace=wrap;html=1;" vertex="1" parent="1">
          <mxGeometry x="539.87" y="880" width="67.87" height="43" as="geometry" />
        </mxCell>
        <mxCell id="bWPqm9X892vFMa2IZU0u-55" value="переход запрещен, требуется файл" style="rounded=0;whiteSpace=wrap;html=1;" vertex="1" parent="1">
          <mxGeometry x="385.18" y="390" width="119.5" height="30" as="geometry" />
        </mxCell>
        <mxCell id="bWPqm9X892vFMa2IZU0u-57" value="rule требует commit-link" style="rounded=0;whiteSpace=wrap;html=1;" vertex="1" parent="1">
          <mxGeometry x="405.43" y="550" width="80" height="30" as="geometry" />
        </mxCell>
        <mxCell id="bWPqm9X892vFMa2IZU0u-59" value="rule требует commit-link и&amp;nbsp;attachment" style="rounded=0;whiteSpace=wrap;html=1;" vertex="1" parent="1">
          <mxGeometry x="395.87" y="700" width="123" height="30" as="geometry" />
        </mxCell>
        <mxCell id="bWPqm9X892vFMa2IZU0u-61" value="перемещение тикета" style="rounded=0;whiteSpace=wrap;html=1;" vertex="1" parent="1">
          <mxGeometry x="513.8" y="800" width="120" height="40" as="geometry" />
        </mxCell>
      </root>
    </mxGraphModel>
  </diagram>
</mxfile>
